<?xml version="1.0" encoding="UTF-8" standalone="no"?>
<!-- Created with Inkscape (http://www.inkscape.org/) -->
<svg id="svg2995" xmlns:inkscape="http://www.inkscape.org/namespaces/inkscape" xmlns:rdf="http://www.w3.org/1999/02/22-rdf-syntax-ns#" xmlns="http://www.w3.org/2000/svg" inkscape:version="0.48.4 r9939" height="78" width="118" version="1.1" xmlns:cc="http://creativecommons.org/ns#" xmlns:dc="http://purl.org/dc/elements/1.1/" sodipodi:docname="BPL.svg" xmlns:sodipodi="http://sodipodi.sourceforge.net/DTD/sodipodi-0.dtd">
 <metadata id="metadata3001">
  <rdf:RDF>
   <cc:Work rdf:about="">
    <dc:format>image/svg+xml</dc:format>
    <dc:type rdf:resource="http://purl.org/dc/dcmitype/StillImage"/>
    <dc:title/>
   </cc:Work>
  </rdf:RDF>
 </metadata>
 <sodipodi:namedview id="namedview2997" inkscape:showpageshadow="false" inkscape:zoom="1" borderopacity="1" inkscape:current-layer="svg2995" inkscape:cx="73.626498" inkscape:cy="28.3" inkscape:window-maximized="1" showgrid="false" units="px" bordercolor="#666666" inkscape:window-x="-8" guidetolerance="10" objecttolerance="10" inkscape:window-y="-8" inkscape:window-width="1600" inkscape:pageopacity="0" inkscape:pageshadow="2" pagecolor="#ffffff" gridtolerance="10" inkscape:window-height="838" showborder="true"/>
 <path id="path5283" d="m0.6485,77.413c0.002422-0.26392,0.84618-1.0121,3.1055-2.7534,1.7062-1.3151,3.1407-2.5213,3.1878-2.6806,0.047053-0.15928,2.4678-9.3087,5.3794-20.332,3.8245-14.479,5.2417-20.095,5.106-20.234-0.10331-0.10584-1.1393-0.74088-2.3021-1.4116-1.1629-0.6705-2.1143-1.291-2.1143-1.3787,0-0.13248,8.6637-2.9559,17.035-5.5516,1.0939-0.33914,4.0512-1.083,6.5718-1.6526,5.1132-1.1558,6.3909-1.2423,7.9709-0.53924,3.042,1.3538,4.1421,6.0326,2.4262,10.318-1.118,2.792-2.7745,4.9986-6.5317,8.7009-1.4649,1.4434-2.6031,2.659-2.5293,2.7014,0.07375,0.04242,0.7009,0.1311,1.3937,0.19698,2.7915,0.26564,4.0887,1.0966,4.6326,2.9677,0.4561,1.5688,0.27581,5.2355-0.3521,7.1607-1.575,4.825-4.806,8.714-10.163,12.233-2.405,1.58-4.931,2.714-10.252,4.605-23.538,8.364-22.569,8.036-22.566,7.651zm39.314-20.03,0.312-0.567,0.11743,0.93113c0.045,0.35678-1.3348,0.60807-1.8414,1.2279l-0.9212,1.1269,1.1492-1.5257c0.48853-0.64871,1.0128-0.88167,1.1842-1.1933zm-13.421-0.02528c3.8474-1.9377,6.1571-6.41,4.0487-7.8395-0.79826-0.54132-4.4012-0.29884-5.2973,0.35643-0.20959,0.15323-0.61116,1.4837-1.3158,4.3592-0.5578,2.2763-0.97943,4.2363-0.93694,4.3554,0.09278,0.26029,1.5734-0.26044,3.5014-1.2315zm2.312-15.575c2.667-1.1558,5.28-3.3105,6.0367-4.9777,0.44261-0.9754,0.4454-2.3045,0.0063-3.0246-0.49246-0.80764-1.0873-1.1304-2.0841-1.1304-1.1505,0-3.3887,0.53803-3.6871,0.88634-0.20914,0.24402-2.1976,8.0605-2.1934,8.6223,0.0026,0.34622,0.46287,0.25613,1.9216-0.37598zm-9.428-9.6336c0.0039-0.30921,0.73451,0.73155,1.2955-0.08389,0.29627-0.43063,0.95343-1.2478,1.4604-1.8159,0.90745-1.0171-0.4602,2.7014-0.6028,2.5587-0.18764-0.18765,0.9684,1.6813,0.6336,2.0154-0.21331,0.21306-0.9588-0.3352,0.7162,0.5921,0.68734,0.38048-0.6047,2.1656-0.5489,2.2559,0.05577,0.09013-4.2497-5.0384-4.6789-3.2078-1.2004,5.1198-0.65103-0.84725,0.69292-2.8978,0.62341-0.95119,1.0307,0.68105,1.032,0.58315zm20.479,31.701c0-0.0913,0.64205-0.70786,1.4268-1.3702,0.78473-0.66237,1.95-1.7019,2.5895-2.3102l1.1627-1.1058,4.518-19.677c2.4849-10.822,4.4801-19.775,4.4339-19.896-0.04625-0.12053-1.1453-0.63781-2.4424-1.1496-1.2971-0.51174-2.3311-1.0143-2.2979-1.1167,0.07568-0.23312,14.802-4.6985,18.54-5.6219,3.6014-0.88962,5.0854-1.108,7.6095-1.1195,3.6473-0.01724,5.7934,0.8597,7.3143,2.9869,1.3049,1.8249,1.7272,5.4351,1.0042,8.5835-1.8269,7.9554-8.6444,13.87-19.933,17.292-1.1231,0.34035-2.0937,0.67482-2.1568,0.74314-0.17331,0.18764-3.5695,14.623-3.4909,14.838,0.03754,0.10251,0.78043,0.51174,1.6508,0.90934,1.1515,0.52591,1.5307,0.77462,1.3922,0.91313-0.10468,0.10483-4.7696,1.7286-10.367,3.6086-12.022,4.0381-10.954,3.6979-10.954,3.4921zm27.995-34.841c2.6568-1.516,4.3448-3.5827,4.3448-5.3194,0-1.4254-1.1658-2.5867-2.5941-2.5841-0.86271,0-3.2797,0.60669-3.5407,0.88668-0.26889,0.2883-2.0609,8.2017-1.9119,8.4428,0.14643,0.23693,2.1199-0.52333,3.7019-1.4259zm-11.692-9.653c1.03-1.6364,2.6665-0.41212,3.5521-1.8029,2.0023-3.1446,1.3301,0.90553,1.745,1.5542,3.1253,4.8875-3.0851,3.233-4.8943,2.0103-0.07582-0.0512-3.6001-3.3892-2.8003-2.8733,0.79974,0.5159,1.4922,1.0006,1.5388,1.0771,0.04655,0.07649-0.17241,1.3062-0.48663,2.733-0.69971,3.1773,0.29001-3.5656,0.53832-3.8048,0.09875-0.0951-0.22292,2.7427,0.80711,1.1063zm20.117,32.166c0.18121-0.20113,1.3231-1.2243,2.5376-2.2739s2.2464-2.0719,2.2932-2.2718c0.04678-0.19992,0.46774-2.1535,0.93557-4.3412,0.468-2.188,2.265-10.582,3.993-18.655,2.635-12.305,3.105-14.714,2.909-14.908-0.128-0.1271-1.281-0.6046-2.562-1.061-1.28-0.4564-2.331-0.9078-2.334-1.0029-0.004-0.0951,0.616-0.3436,1.377-0.5522s5.469-1.507,10.463-2.8856c10.433-2.8796,10.203-2.8243,10.203-2.4706,0,0.14232-0.97787,1.1891-2.1731,2.3266l-2.1731,2.068-2.9133,15.025c-1.6023,8.2636-2.8619,15.079-2.799,15.146,0.06281,0.06644,3.8887-1.025,8.5019-2.4255l8.3878-2.5464,2.2769-2.3304c1.2523-1.2819,2.3337-2.2739,2.4031-2.2045,0.1544,0.1541-2.5172,13.044-2.7701,13.365-0.16149,0.20529-4.5548,1.62-31.202,10.046-4.0306,1.2746-7.4086,2.3174-7.5066,2.3174-0.09799,0-0.02991-0.16448,0.15127-0.3656zm15.963-43.298c1.0562-1.6616,1.9203-3.0606,1.9203-3.1087,0-0.12815,2.7894,1.6373,0.55342,2.2106-2.7562,0.70648,1.0723,0.76561,1.0723,1.0074,0,0.11414-1.6246,0.96001-2.6216,0.89117l-1.928,2.6201-0.8-2.0029c-0.16431-0.41161,1.4453,0.55411,1.3994,0.72049-0.04595,0.16654-1.6386,0.68312-1.5945,0.68312,0.04407,0,0.94432-1.3595,2.0005-3.0213z" sodipodi:nodetypes="sssscssssssssssssscsssscsssscscscccsscccccscsscsscssscscscsssssscsssssscsssssssssssssssssssssssscssscsssssscsssscsscccsccccscc" inkscape:connector-curvature="0" fill="#017540"/>
</svg>
