<svg id="Layer_1" data-name="Layer 1" xmlns="http://www.w3.org/2000/svg" viewBox="0 0 605.92 204.19"><defs><style>.cls-1{fill:#231f20;}.cls-2{fill:#fd0;}</style></defs><title>home_logo</title><rect class="cls-1" width="355.16" height="204.19"/><rect class="cls-1" x="372.81" width="233.11" height="204.19"/><path class="cls-2" d="M133.24,181.85V87.53c-8.88,19.07-18.29,38.15-27.17,57H85.17L58.25,87.79v94.06H26.38V25.08H61.13l35,71.07c11.5-23.52,23-47.81,34.49-71.07h34.49V181.85Z"/><path class="cls-2" d="M295.24,181.85l-10.45-30H230.18c-3.4,9.67-7.32,20.38-10.72,30h-34L239.84,25.08h35.28L329.2,181.85Zm-37.89-111c-5.75,16.72-11.76,33.7-17.51,50.42h35.28Z"/><path class="cls-2" d="M433.65,88.31v59.84a8.06,8.06,0,0,0,.52,3.39A28.62,28.62,0,0,0,444.62,162a9.41,9.41,0,0,0,3.66.79h18.29v19.07H448c-6.27,0-13.06-1.83-17.77-5.22-3.92-2.88-10.45-9.93-12.54-12.81a25.8,25.8,0,0,1-4.44-15.15V88.31H394.72V69.24h18.55V25.08h20.38V69.24h34.49V88.31Z"/><path class="cls-2" d="M546.26,181.85H522L482.77,69.24h22L534,157.81l29.26-88.57h21.69Z"/></svg>